<?xml version="1.0" encoding="UTF-8" standalone="no"?>
<!-- Created with Inkscape (http://www.inkscape.org/) -->

<svg
   width="17.863077mm"
   height="11.208864mm"
   viewBox="0 0 17.863077 11.208864"
   version="1.1"
   id="svg5"
   xml:space="preserve"
   xmlns="http://www.w3.org/2000/svg"
   xmlns:svg="http://www.w3.org/2000/svg"><defs
     id="defs2"><filter
       style="color-interpolation-filters:sRGB"
       id="filter15114"
       x="-0.043897055"
       y="-0.13757816"
       width="1.087779"
       height="1.2677125"><feGaussianBlur
         stdDeviation="0.12426767"
         id="feGaussianBlur15116" /></filter><filter
       style="color-interpolation-filters:sRGB"
       id="filter15122"
       x="-0.054936219"
       y="-0.076561213"
       width="1.1098723"
       height="1.1531224"><feGaussianBlur
         stdDeviation="0.16153827"
         id="feGaussianBlur15124" /></filter><filter
       style="color-interpolation-filters:sRGB"
       id="filter15134"
       x="-0.042806525"
       y="-0.021543179"
       width="1.085665"
       height="1.0430864"><feGaussianBlur
         stdDeviation="0.080939142"
         id="feGaussianBlur15136" /></filter><filter
       style="color-interpolation-filters:sRGB"
       id="filter15168"
       x="-0.032497779"
       y="-0.14889953"
       width="1.0649956"
       height="1.297799"><feGaussianBlur
         stdDeviation="0.092824301"
         id="feGaussianBlur15170" /></filter><filter
       style="color-interpolation-filters:sRGB"
       id="filter15172"
       x="-0.11571881"
       y="-0.10550966"
       width="1.2306834"
       height="1.2110305"><feGaussianBlur
         stdDeviation="0.028924532"
         id="feGaussianBlur15174" /></filter><filter
       style="color-interpolation-filters:sRGB"
       id="filter15266"
       x="-0.02323954"
       y="-0.068962812"
       width="1.0387483"
       height="1.1618651"><feGaussianBlur
         stdDeviation="0.039850813"
         id="feGaussianBlur15268" /></filter><filter
       style="color-interpolation-filters:sRGB"
       id="filter16007"
       x="-0.15072352"
       y="-0.06961146"
       width="1.30147"
       height="1.1392229"><feGaussianBlur
         stdDeviation="0.39125618"
         id="feGaussianBlur16009" /></filter></defs><g
     id="layer1"
     transform="translate(-16.133711,-6.5696295)"><g
       id="g17287"
       transform="matrix(1.5765532,0,0,1.720347,-14.451451,-8.7695475)"><g
         id="g17240"
         transform="matrix(0.81122836,0,0,0.87154319,7.9947592,-1.7363966)"><path
           id="path12020"
           style="mix-blend-mode:normal;fill:#000000;stroke:#000000;stroke-width:0.224296;stroke-linejoin:round;stroke-dasharray:none;filter:url(#filter15134)"
           d="m 91.413237,134.70528 c 0.06989,1.16367 0.730049,1.10957 1.654689,1.57848 0.09596,0.12635 -0.20954,0.46795 -2.008912,0.46795 -1.279459,0 -2.122002,-0.3595 -2.122002,-0.42126 0.63117,-0.32683 1.226192,-0.34812 1.677671,-0.94801 0.666749,-1.95183 -0.560414,-3.23509 -1.019249,-3.61775 l -0.470087,-0.34695 c -0.599493,-0.44245 -1.140455,-1.05007 -1.368207,-1.53683 -0.548348,-1.1719 -0.425068,-2.99846 0.399798,-5.9231 l 0.295097,-1.04628 c 0,0 1.750384,-0.38251 2.614923,-0.38251 0.864531,0 2.572286,0.38251 2.572286,0.38251 l 0.305933,1.08404 c 0.65979,2.33792 0.849463,4.34016 0.517585,5.46383 -0.191953,0.64986 -0.882228,1.53867 -1.55556,2.00297 -1.025563,0.872 -1.541641,2.15634 -1.493965,3.24291 z"
           transform="matrix(0.40468136,0,0,0.43850132,-20.354011,-41.085603)" /><path
           id="path15138"
           style="fill:#000000;stroke:#000000;stroke-width:0.0939265;stroke-linejoin:round;stroke-dasharray:none"
           d="m 16.641995,18.00353 c 0.02768,0.5152 0.289161,0.49125 0.655397,0.69884 0.03801,0.0559 -0.083,0.20719 -0.795699,0.20719 -0.506774,0 -0.840492,-0.15916 -0.840492,-0.18651 0.249997,-0.1447 0.485676,-0.15412 0.6645,-0.41972 0.264089,-0.86414 -0.221972,-1.43228 -0.403709,-1.60171 l -0.186195,-0.1536 c -0.237449,-0.19589 -0.451716,-0.46491 -0.541925,-0.68041 -0.217192,-0.51885 -0.168363,-1.32753 0.158354,-2.62237 l 0.116883,-0.46322 c 0,0 0.6933,-0.16935 1.03573,-0.16935 0.342428,0 1.018843,0.16935 1.018843,0.16935 l 0.121175,0.47994 c 0.261333,1.03509 0.336459,1.92155 0.205007,2.41903 -0.07603,0.28772 -0.349437,0.68123 -0.616133,0.88679 -0.406209,0.38607 -0.61062,0.95468 -0.591736,1.43575 z" /><path
           id="path16005"
           style="opacity:0.680851;fill:#ffffff;stroke:#000000;stroke-width:0.228065;stroke-linejoin:round;stroke-dasharray:none;filter:url(#filter16007)"
           d="m 90.498273,134.63828 c 0.06794,1.2377 0.709638,1.18016 1.608429,1.67889 0.09327,0.1344 -0.203683,0.49773 -1.95275,0.49773 -1.243689,0 -2.062676,-0.38237 -2.062676,-0.44807 0.613524,-0.34761 1.191911,-0.37025 1.630768,-1.00831 0.648109,-2.076 -0.544747,-3.44089 -0.990755,-3.84791 l -0.456945,-0.36902 c -0.582733,-0.47061 -1.108571,-1.11687 -1.329955,-1.63458 -0.533019,-1.24648 -0.413186,-3.18924 0.38862,-6.29993 l 0.286847,-1.11284 c 0,0 1.701449,-0.40684 2.541818,-0.40684 0.840362,0 2.500374,0.40684 2.500374,0.40684 l 0.29738,1.15299 c 0.641344,2.48668 0.825713,4.61629 0.503114,5.81144 -0.186587,0.69121 -0.857564,1.63655 -1.512071,2.13039 -0.996892,0.92749 -1.498542,2.29352 -1.452198,3.44922 z"
           transform="matrix(0.40484458,0,0,0.41436709,-19.963884,-37.764076)" /><path
           id="path11613"
           style="fill:#ffffff;stroke:#ffffff;stroke-width:0.0369606;stroke-linejoin:round;stroke-dasharray:none"
           d="m 15.464676,12.8374 c -0.251317,0.85453 -0.582418,1.94665 -0.358806,2.80824 0.181567,0.41431 0.373661,0.63562 0.627043,0.83539 0.246644,0.19446 0.57192,0.40145 0.833688,0.53877 0.325966,-0.11213 0.561502,-0.35949 0.768059,-0.56883 0.256798,-0.26024 0.40011,-0.50402 0.551709,-0.83835 0.121844,-0.49158 0.04118,-1.33661 -0.222895,-2.31926 L 17.5377,12.82534 c 0,0 -0.645559,0.14882 -0.974091,0.15346 -0.369191,0.005 -1.098933,-0.1414 -1.098933,-0.1414 z" /><path
           style="fill:#000000;fill-opacity:1;stroke:none;stroke-width:0.160042;stroke-linejoin:miter;stroke-dasharray:none"
           d="m 16.565267,16.99765 c 0.57017,-0.27297 1.109092,-0.81203 1.324815,-1.49698 0.164001,-0.52073 -1.233385,-0.98244 -1.6693,-0.55588 -0.332826,0.27608 -0.838327,0.0224 -1.125199,-0.13761 -0.189891,0.6892 0.209974,1.30828 0.721156,1.7352 0.245493,0.20502 0.410194,0.24708 0.748528,0.45527 z"
           id="path11671" /><path
           style="fill:#000000;fill-opacity:1;stroke:none;stroke-width:0.379919;stroke-linejoin:miter;stroke-dasharray:none;filter:url(#filter15122)"
           d="m 91.230487,132.45855 c 1.408936,-0.62251 2.740655,-1.85182 3.273725,-3.41385 0.40526,-1.18752 -3.047793,-2.24046 -4.124973,-1.26767 -0.822441,0.6296 -2.071574,0.0511 -2.780457,-0.31383 -0.469237,1.57171 0.518862,2.98351 1.782034,3.95711 0.606633,0.46756 1.013621,0.56347 1.849671,1.03824 z"
           id="path13584"
           transform="matrix(0.40468136,0,0,0.43850132,-20.354011,-41.085603)" /><path
           style="opacity:0.111702;fill:#ffffff;fill-opacity:1;stroke:#000000;stroke-width:0.0213903;stroke-linejoin:miter;stroke-dasharray:none;filter:url(#filter15114)"
           d="m 90.42965,129.85778 c 4.316873,0 4.089351,-1.03846 4.089351,-1.03846 -2.135329,0.0779 -6.188157,0.43959 -6.909641,-1.33553 -0.02858,0.0701 -0.0837,0.25522 -0.113144,0.48059 -0.02851,0.21823 -0.01148,0.46353 0.01477,0.57633 1.021403,0.76683 1.784277,1.13695 2.918658,1.31707 z"
           id="path12130"
           transform="matrix(0.40468136,0,0,0.43850132,-20.354011,-41.085603)" /><path
           id="path15107"
           style="fill:#280b0b;fill-opacity:1;stroke:none;stroke-width:0.160042;stroke-linejoin:miter;stroke-dasharray:none"
           d="m 14.059246,15.17385 c 0.0019,-0.006 0.0036,-0.0127 0.0051,-0.019" /><path
           id="path15109"
           style="opacity:0.420213;mix-blend-mode:normal;fill:#ffffff;fill-opacity:1;stroke:none;stroke-width:0.379919;stroke-linejoin:miter;stroke-dasharray:none;filter:url(#filter15168)"
           d="m 94.422767,128.97232 c 0.394633,-0.92091 -2.915894,-2.09845 -3.978146,-1.13914 -0.82244,0.6296 -2.126313,0.0543 -2.835195,-0.31066 -0.108081,0.36202 0.714666,1.20321 2.745479,1.41145"
           transform="matrix(0.40468136,0,0,0.43850132,-20.354011,-41.085603)" /></g><g
         id="g17154"
         transform="matrix(0.82243856,0,0,0.80948251,-58.626035,-92.326384)"><g
           id="g15264"
           style="mix-blend-mode:normal;filter:url(#filter15266)"
           transform="matrix(0.34470172,0,0,0.36846676,66.733579,81.964493)"><path
             style="mix-blend-mode:normal;fill:#000000;stroke:#000000;stroke-width:0.101871;filter:url(#filter15172)"
             d="m 108.705,131.04375 c -0.18196,-0.1925 -0.14147,-0.65838 0.0752,-0.86587 0.44844,-0.42935 1.09237,0.18638 0.75856,0.72536 -0.17934,0.28957 -0.62235,0.36422 -0.83381,0.14051 z"
             id="path1144" /><path
             style="mix-blend-mode:normal;fill:#000000;stroke:#000000;stroke-width:0.101871;filter:url(#filter15172)"
             d="m 119.82738,136.31194 c -0.10894,-0.0485 -0.28722,-0.19292 -0.39617,-0.32085 -0.17583,-0.20647 -0.20166,-0.40792 -0.22998,-1.79363 l -0.0319,-1.56105 h -0.38903 c -0.37858,0 -0.38903,-0.01 -0.38903,-0.36673 0,-0.358 0.01,-0.36673 0.39616,-0.36673 h 0.39617 v -0.73346 -0.73347 h 0.44569 0.44569 v 0.73347 0.73346 h 0.44568 c 0.44334,0 0.44569,0.002 0.44569,0.36673 0,0.36479 -0.002,0.36673 -0.44569,0.36673 h -0.44568 v 1.41086 c 0,1.32856 0.0122,1.41776 0.20918,1.52928 0.11505,0.0652 0.31796,0.0965 0.45091,0.0696 0.22423,-0.0453 0.23955,-0.0214 0.21174,0.33056 -0.0293,0.37139 -0.0395,0.37993 -0.47566,0.40149 -0.24514,0.0121 -0.53483,-0.0177 -0.64377,-0.0662 z"
             id="path1142" /><path
             style="mix-blend-mode:normal;fill:#000000;stroke:#000000;stroke-width:0.101871;filter:url(#filter15172)"
             d="m 100.76185,134.15573 v -2.25278 h 0.44569 c 0.43618,0 0.44575,0.007 0.4487,0.34054 0.003,0.28208 0.0203,0.30905 0.10396,0.15716 0.15296,-0.27782 0.62859,-0.4977 1.07661,-0.4977 h 0.40108 v 0.41912 0.41912 h -0.42364 c -0.91681,0 -1.16102,0.49519 -1.16102,2.3542 v 1.31313 h -0.44569 -0.44569 z"
             id="path1140" /><path
             id="path1136"
             style="mix-blend-mode:normal;fill:#000000;stroke:#000000;stroke-width:0.101871;filter:url(#filter15172)"
             d="m 95.71059,130.22639 v 3.09128 3.09025 h 0.495061 0.49506 v -1.15238 -1.1529 l 0.916223,-0.002 c 1.049584,-0.003 1.556278,-0.18542 1.97559,-0.71262 0.483386,-0.60737 0.485056,-1.83743 0.0036,-2.44274 -0.472304,-0.59384 -0.887809,-0.71376 -2.474267,-0.71676 z m 0.990638,0.83819 h 0.696598 c 0.860307,0 1.316942,0.1899 1.535823,0.63769 0.230178,0.47091 0.06155,1.07266 -0.380855,1.35805 -0.241631,0.15585 -0.498157,0.20382 -1.084171,0.20413 l -0.767395,5.1e-4 v -1.10019 z" /><path
             style="mix-blend-mode:normal;fill:#000000;stroke:#000000;stroke-width:0.101871;filter:url(#filter15172)"
             d="m 116.15218,136.49024 c -1.49045,-0.44808 -1.9773,-2.67828 -0.85399,-3.9121 0.57124,-0.62744 1.24814,-0.81025 2.08737,-0.56376 0.37018,0.10873 1.04458,0.6921 1.04458,0.90359 0,0.0537 -0.16307,0.15062 -0.36239,0.21534 -0.32732,0.10628 -0.39033,0.0928 -0.65136,-0.13959 -0.34215,-0.30458 -0.90585,-0.34336 -1.25289,-0.0862 -0.28299,0.20969 -0.60122,0.92335 -0.60122,1.34826 0,1.17501 1.11843,1.91697 1.87474,1.2437 0.26318,-0.23429 0.356,-0.26156 0.61885,-0.1818 0.4313,0.13087 0.44467,0.29913 0.0564,0.70989 -0.49791,0.52676 -1.19756,0.69191 -1.96009,0.46267 z"
             id="path1128" /><path
             style="mix-blend-mode:normal;fill:#000000;stroke:#000000;stroke-width:0.101871;filter:url(#filter15172)"
             d="m 107.79381,137.71828 c 0.0311,-0.46662 0.30579,-0.35071 0.64961,-0.51531 0.17979,-0.13896 0.19417,-0.31542 0.22192,-2.7243 l 0.0297,-2.57572 h 0.39125 0.39125 v 2.73478 c -0.0224,1.32644 0.0474,2.09271 -0.21521,3.10622 -0.16669,0.28773 -0.521,0.34106 -0.96339,0.34106 h -0.50511 z"
             id="path181" /><path
             id="path2091"
             style="mix-blend-mode:normal;fill:#000000;stroke:#000000;stroke-width:0.101871;filter:url(#filter15172)"
             d="m 112.22173,131.91156 c -0.48022,0.002 -0.96267,0.17042 -1.33791,0.49764 -0.39993,0.34876 -0.75964,1.23135 -0.75964,1.86397 0,0.86628 0.49122,1.75549 1.13895,2.06137 v 5.2e-4 c 0.16342,0.0772 0.58849,0.14218 0.94465,0.14418 0.77918,0.005 1.40106,-0.29017 1.70067,-0.80771 l 0.19688,-0.34054 h -0.42426 c -0.29166,0 -0.49194,0.067 -0.64079,0.21497 -0.1545,0.15354 -0.35959,0.21838 -0.71623,0.22738 -0.5699,0.005 -1.40369,-0.56073 -1.24954,-1.3069 0.114,-0.0819 0.39926,-0.0809 0.95601,-0.0739 0.55835,0.007 1.27807,0.009 1.59887,0.004 l 0.58291,-0.009 -0.0594,-0.53485 c -0.0685,-0.61166 -0.43782,-1.34565 -0.8046,-1.5999 -0.33224,-0.23031 -0.72865,-0.34275 -1.12655,-0.34106 z m 0.13229,0.70745 c 0.75837,-0.0177 1.34382,0.5477 1.30845,1.29708 l -2.61483,0.0253 c -0.0194,-0.54682 0.32711,-1.10268 0.92191,-1.26504 0.13138,-0.0359 0.26037,-0.0545 0.38447,-0.0574 z" /><path
             id="path9141"
             style="mix-blend-mode:normal;fill:#000000;stroke:#000000;stroke-width:0.101871;filter:url(#filter15172)"
             d="m 105.57045,131.86918 c -0.54078,-0.003 -1.00586,0.21876 -1.41645,0.66973 -0.89513,0.9832 -0.76742,2.59901 0.0755,3.44165 7e-4,6.9e-4 0.001,0.001 0.002,0.002 0.007,0.007 0.0123,0.0135 0.0191,0.0207 0.43821,0.46359 1.03273,0.64705 1.68879,0.52813 0.15965,-0.0237 0.31278,-0.068 0.45733,-0.13281 1.24624,-0.52946 1.68039,-2.37051 0.87695,-3.57652 -0.0453,-0.11983 -0.21257,-0.30179 -0.41186,-0.46819 -0.001,-0.001 -0.002,-0.002 -0.004,-0.003 -0.0912,-0.0799 -0.18495,-0.14949 -0.28163,-0.20878 -0.005,-0.003 -0.0103,-0.007 -0.0155,-0.01 -0.001,-9.5e-4 -0.003,-0.002 -0.005,-0.003 -0.11368,-0.0719 -0.22338,-0.12768 -0.31471,-0.15451 -0.23603,-0.0693 -0.45967,-0.10487 -0.67128,-0.10594 z m 0.0429,0.84439 c 0.0763,-0.002 0.15229,0.004 0.22583,0.0176 0.15936,0.0395 0.31043,0.11409 0.43305,0.22325 0.0118,0.0105 0.023,0.0203 0.0341,0.03 0.25049,0.28288 0.49403,0.87567 0.49403,1.24747 0,0.7689 -0.47866,1.35204 -1.02165,1.47484 -0.66494,0.0936 -1.36064,-0.56379 -1.36064,-1.49034 0,-0.33558 0.19882,-0.85072 0.42168,-1.15601 0.0322,-0.0256 0.0667,-0.0556 0.10645,-0.0909 0.18177,-0.16181 0.42603,-0.24854 0.66715,-0.2558 z" /></g><g
           id="g16041"
           transform="matrix(0.356071,0,0,0.36087871,65.393856,82.960133)"><path
             id="path9230"
             style="mix-blend-mode:normal;fill:#ffffff;stroke:#000000;stroke-width:0.101947;filter:url(#filter15172)"
             d="m 71.006714,134.65352 v 3.09596 3.09493 h 0.495053 0.49505 v -1.15412 -1.15465 l 0.916207,-0.002 c 1.049565,-0.003 1.55625,-0.1857 1.975554,-0.71371 0.483376,-0.60828 0.485052,-1.84021 0.0036,-2.44643 -0.472295,-0.59474 -0.887793,-0.71484 -2.474222,-0.71785 z m 0.99062,0.83945 h 0.696586 c 0.860291,0 1.316918,0.1902 1.535796,0.63866 0.230174,0.47163 0.06155,1.07429 -0.380849,1.36011 -0.241626,0.15608 -0.498148,0.20413 -1.084152,0.20444 l -0.767381,5e-4 v -1.10185 z"
             transform="matrix(0.99397941,0,0,0.99038355,25.535533,-3.2350325)" /><path
             style="mix-blend-mode:normal;fill:#ffffff;stroke:#000000;stroke-width:0.101871;filter:url(#filter15172)"
             d="m 95.087444,140.7384 c -0.108942,-0.0485 -0.287217,-0.19292 -0.39617,-0.32085 -0.175831,-0.20647 -0.201664,-0.40792 -0.229977,-1.79363 l -0.03187,-1.56105 h -0.38903 c -0.378581,0 -0.389031,-0.01 -0.389031,-0.36673 0,-0.358 0.0095,-0.36673 0.396164,-0.36673 h 0.39617 v -0.73346 -0.73347 h 0.445687 0.445687 v 0.73347 0.73346 h 0.44568 c 0.44334,0 0.44569,0.002 0.44569,0.36673 0,0.36479 -0.002,0.36673 -0.44569,0.36673 h -0.44568 v 1.41086 c 0,1.32856 0.0122,1.41776 0.20918,1.52928 0.11505,0.0652 0.31796,0.0965 0.45091,0.0696 0.22423,-0.0453 0.23955,-0.0214 0.21174,0.33056 -0.0293,0.37139 -0.0395,0.37993 -0.47566,0.40149 -0.24514,0.0121 -0.53483,-0.0177 -0.643772,-0.0662 z"
             id="path9234"
             transform="matrix(0.99397941,0,0,0.99038355,25.535533,-3.2350325)" /><path
             style="mix-blend-mode:normal;fill:#ffffff;stroke:#000000;stroke-width:0.101871;filter:url(#filter15172)"
             d="m 76.021915,138.58219 v -2.25278 h 0.445687 c 0.436183,0 0.445754,0.007 0.448699,0.34054 0.0026,0.28208 0.0203,0.30905 0.103968,0.15716 0.152953,-0.27782 0.62859,-0.4977 1.076606,-0.4977 h 0.401082 v 0.41912 0.41912 h -0.423645 c -0.916809,0 -1.161018,0.49519 -1.161018,2.3542 v 1.31313 h -0.445692 -0.445687 z"
             id="path9236"
             transform="matrix(0.99397941,0,0,0.99038355,25.535533,-3.2350325)" /><path
             style="mix-blend-mode:normal;fill:#ffffff;stroke:#000000;stroke-width:0.101871;filter:url(#filter15172)"
             d="m 91.412248,140.9167 c -1.490458,-0.44808 -1.977304,-2.67828 -0.853996,-3.9121 0.571247,-0.62744 1.248146,-0.81025 2.087368,-0.56376 0.370187,0.10873 1.044585,0.6921 1.044585,0.90359 0,0.0537 -0.163072,0.15062 -0.362387,0.21534 -0.327327,0.10628 -0.390337,0.0928 -0.651365,-0.13959 -0.342147,-0.30458 -0.905847,-0.34336 -1.252887,-0.0862 -0.282987,0.20969 -0.601223,0.92335 -0.601223,1.34826 0,1.17501 1.118433,1.91697 1.874742,1.2437 0.263181,-0.23429 0.355997,-0.26156 0.618853,-0.1818 0.431295,0.13087 0.444664,0.29913 0.0564,0.70989 -0.497916,0.52676 -1.197559,0.69191 -1.960093,0.46267 z"
             id="path9238"
             transform="matrix(0.99397941,0,0,0.99038355,25.535533,-3.2350325)" /><path
             id="path9242"
             style="mix-blend-mode:normal;fill:#ffffff;stroke:#000000;stroke-width:0.101871;filter:url(#filter15172)"
             d="m 87.481792,136.33802 c -0.48022,0.002 -0.962667,0.17042 -1.337903,0.49764 -0.399934,0.34876 -0.759643,1.23135 -0.759643,1.86397 0,0.86628 0.491215,1.75549 1.138948,2.06137 v 5.2e-4 c 0.163418,0.0772 0.588494,0.14218 0.944646,0.14418 0.779182,0.005 1.401067,-0.29017 1.700671,-0.80771 l 0.196887,-0.34054 h -0.424263 c -0.29166,0 -0.491942,0.067 -0.640788,0.21497 -0.154498,0.15354 -0.359594,0.21838 -0.716235,0.22738 -0.569902,0.005 -1.403686,-0.56073 -1.249537,-1.3069 0.114004,-0.0819 0.399263,-0.0809 0.956014,-0.0739 0.558348,0.007 1.278067,0.009 1.598869,0.004 l 0.58291,-0.009 -0.05943,-0.53485 c -0.06847,-0.61166 -0.437825,-1.34565 -0.804602,-1.5999 -0.332244,-0.23031 -0.728649,-0.34275 -1.126546,-0.34106 z m 0.132292,0.70745 c 0.758375,-0.0177 1.343819,0.5477 1.308447,1.29708 l -2.614827,0.0253 c -0.01936,-0.54682 0.327112,-1.10268 0.921907,-1.26504 0.131381,-0.0359 0.260375,-0.0545 0.384473,-0.0574 z"
             transform="matrix(0.99397941,0,0,0.99038355,25.535533,-3.2350325)" /><g
             id="g10700"
             transform="matrix(0.99397941,0,0,0.99038355,25.535533,-3.2350325)"
             style="mix-blend-mode:normal;filter:url(#filter15172)"><path
               style="fill:#ffffff;stroke:#000000;stroke-width:0.101871"
               d="m 83.96506,135.47021 c -0.181952,-0.1925 -0.141464,-0.65838 0.07525,-0.86587 0.448445,-0.42935 1.092372,0.18638 0.758566,0.72536 -0.179344,0.28957 -0.62235,0.36422 -0.833814,0.14051 z"
               id="path9232" /><path
               style="fill:#ffffff;stroke:#000000;stroke-width:0.101871"
               d="m 83.053877,142.14474 c 0.03105,-0.46662 0.305792,-0.35071 0.649603,-0.51531 0.179799,-0.13896 0.194175,-0.31542 0.221929,-2.7243 l 0.0297,-2.57572 h 0.391247 0.391247 v 2.73478 c -0.02236,1.32644 0.04742,2.09271 -0.215205,3.10622 -0.166698,0.28773 -0.521005,0.34106 -0.963391,0.34106 h -0.505112 z"
               id="path9240" /></g><path
             id="path9244"
             style="mix-blend-mode:normal;fill:#ffffff;stroke:#000000;stroke-width:0.101871;filter:url(#filter15172)"
             d="m 80.830519,136.29564 c -0.540786,-0.003 -1.005868,0.21876 -1.416451,0.66973 -0.895136,0.9832 -0.767418,2.59901 0.07545,3.44165 6.92e-4,6.9e-4 0.0014,0.001 0.0021,0.002 0.0065,0.007 0.01233,0.0135 0.01912,0.0207 0.438206,0.46359 1.032725,0.64705 1.688785,0.52813 0.159648,-0.0237 0.312786,-0.068 0.457337,-0.13281 1.246239,-0.52946 1.680388,-2.37051 0.876949,-3.57652 -0.04529,-0.11983 -0.212575,-0.30179 -0.411861,-0.46819 -0.0012,-0.001 -0.0024,-0.002 -0.0036,-0.003 -0.09123,-0.0799 -0.184953,-0.14949 -0.281636,-0.20878 -0.0052,-0.003 -0.01028,-0.007 -0.0155,-0.01 -0.0015,-9.5e-4 -0.0031,-0.002 -0.0047,-0.003 -0.113675,-0.0719 -0.223374,-0.12768 -0.31471,-0.15451 -0.23603,-0.0693 -0.459665,-0.10487 -0.671276,-0.10594 z m 0.04289,0.84439 c 0.07625,-0.002 0.15229,0.004 0.225826,0.0176 0.159357,0.0395 0.310431,0.11409 0.433049,0.22325 0.01183,0.0105 0.02305,0.0203 0.03411,0.03 0.250491,0.28288 0.494027,0.87567 0.494027,1.24747 0,0.7689 -0.478659,1.35204 -1.021643,1.47484 -0.664948,0.0936 -1.360641,-0.56379 -1.360641,-1.49034 0,-0.33558 0.19882,-0.85072 0.42168,-1.15601 0.03217,-0.0256 0.06675,-0.0556 0.106453,-0.0909 0.181766,-0.16181 0.426024,-0.24854 0.667143,-0.2558 z"
             transform="matrix(0.99397941,0,0,0.99038355,25.535533,-3.2350325)" /></g></g><g
         id="g17184"
         transform="matrix(0.82911478,0,0,0.73183086,-59.730662,-88.326471)"><g
           id="g17168"
           transform="matrix(0.91948447,0,0,0.91682808,8.0204245,19.14797)"
           style="fill:#000000"><g
             id="g17166"
             style="mix-blend-mode:normal;fill:#000000;stroke:#000000;filter:url(#filter15172)"
             transform="matrix(0.40487648,0,0,0.40200375,71.834083,77.298703)"><path
               style="fill:#000000;stroke:#000000;stroke-width:0.101871"
               d="m 78.371819,123.07889 c -0.239962,-0.25387 -0.192516,-0.6432 0.103379,-0.84831 0.231992,-0.16082 0.286246,-0.16346 0.519968,-0.0253 0.491243,0.29036 0.322498,1.03827 -0.234259,1.03827 -0.128396,0 -0.303489,-0.0741 -0.389088,-0.16466 z"
               id="path17156" /><path
               id="path17158"
               style="fill:#000000;stroke:#000000;stroke-width:0.1;stroke-dasharray:none"
               d="m 87.310433,123.97228 c -0.49371,-0.008 -0.993288,0.16055 -1.379244,0.49713 -0.399935,0.34875 -0.759644,1.23186 -0.759644,1.86448 0,0.86628 0.491216,1.75498 1.138949,2.06086 v 5.1e-4 c 0.163418,0.0772 0.588494,0.14218 0.944645,0.14418 0.779182,0.005 1.401068,-0.29016 1.700672,-0.8077 l 0.196887,-0.34055 h -0.424264 c -0.291659,0 -0.491942,0.067 -0.640788,0.21497 -0.154497,0.15354 -0.359593,0.21838 -0.716235,0.22738 -0.569901,0.005 -1.403686,-0.56073 -1.249536,-1.3069 0.114004,-0.0819 0.399263,-0.0809 0.956014,-0.0739 0.558347,0.007 1.278066,0.009 1.598869,0.004 l 0.58291,-0.009 -0.05943,-0.53434 c -0.06847,-0.61165 -0.437825,-1.34616 -0.804602,-1.60041 -0.320787,-0.22238 -0.701209,-0.33458 -1.085205,-0.34055 z m 0.01033,0.64595 c 0.738276,0.003 1.302352,0.56185 1.267623,1.2976 l -2.615344,0.0253 c -0.01936,-0.54682 0.327629,-1.10268 0.922424,-1.26504 0.145978,-0.0399 0.28858,-0.0585 0.425297,-0.0579 z" /><path
               style="fill:#000000;stroke:#000000;stroke-width:0.101208"
               d="m 80.394772,126.25973 v -2.22316 h 0.396233 c 0.374224,0 0.396238,0.0173 0.396238,0.31021 0,0.35549 0.09829,0.39741 0.267732,0.11419 0.0645,-0.10781 0.318519,-0.27624 0.564495,-0.3743 0.874913,-0.34879 1.821557,0.0514 2.03703,0.86132 0.05577,0.20962 0.101651,1.09073 0.101956,1.95801 l 3.77e-4,1.57691 h -0.396238 -0.396238 v -1.123 c 0,-1.51393 -0.07816,-2.02878 -0.355449,-2.34109 -0.334964,-0.37728 -0.920724,-0.35863 -1.351753,0.043 l -0.323505,0.30148 -0.03187,1.55978 -0.03188,1.55979 h -0.438633 -0.438629 z"
               id="path17160" /><path
               style="fill:#000000;stroke:#000000;stroke-width:0.101224"
               d="m 78.33639,126.26025 v -2.22266 h 0.446 0.44601 v 2.22266 2.22265 h -0.44601 -0.446 z"
               id="path17162" /><path
               style="fill:#000000;stroke:#000000;stroke-width:0.101871"
               d="m 70.940424,127.8277 c -0.09397,-0.36019 -0.456395,-1.72656 -0.805387,-3.03639 -0.34899,-1.30983 -0.634528,-2.42967 -0.634528,-2.48854 0,-0.0589 0.212471,-0.10703 0.472158,-0.10703 h 0.472155 l 0.583753,2.38376 c 0.321062,1.31107 0.610619,2.41742 0.643456,2.45857 0.03285,0.0412 0.253295,-0.64255 0.489925,-1.51932 0.236621,-0.87677 0.547976,-1.97134 0.6919,-2.43238 l 0.261678,-0.83825 h 0.441142 0.441136 l 0.689724,2.43601 c 0.379346,1.33981 0.700976,2.4241 0.714742,2.40954 0.02552,-0.0271 1.229234,-4.78334 1.229234,-4.85726 0,-0.0224 0.22585,-0.0407 0.501884,-0.0407 0.430345,0 0.495002,0.0261 0.453621,0.18337 -0.02655,0.10084 -0.415623,1.51538 -0.864616,3.14342 l -0.816354,2.96005 h -0.505665 -0.505664 l -0.629174,-2.33133 c -0.346043,-1.28226 -0.663055,-2.398 -0.704473,-2.47941 -0.08864,-0.17426 -0.03017,-0.35437 -0.643095,1.9817 -0.249482,0.95089 -0.520035,1.97643 -0.601238,2.27898 l -0.147632,0.5501 h -0.528915 -0.52891 z"
               id="path17164" /></g></g><g
           id="g17133"
           transform="matrix(0.91948447,0,0,0.91682808,8.0438106,18.984267)"><g
             id="g10730"
             style="mix-blend-mode:normal;fill:#ffffff;stroke:#000000;filter:url(#filter15172)"
             transform="matrix(0.40487648,0,0,0.40200375,71.834083,77.298703)"><path
               style="fill:#ffffff;stroke:#000000;stroke-width:0.101871"
               d="m 78.371819,123.07889 c -0.239962,-0.25387 -0.192516,-0.6432 0.103379,-0.84831 0.231992,-0.16082 0.286246,-0.16346 0.519968,-0.0253 0.491243,0.29036 0.322498,1.03827 -0.234259,1.03827 -0.128396,0 -0.303489,-0.0741 -0.389088,-0.16466 z"
               id="path10720" /><path
               id="path10722"
               style="fill:#ffffff;stroke:#000000;stroke-width:0.1;stroke-dasharray:none"
               d="m 87.310433,123.97228 c -0.49371,-0.008 -0.993288,0.16055 -1.379244,0.49713 -0.399935,0.34875 -0.759644,1.23186 -0.759644,1.86448 0,0.86628 0.491216,1.75498 1.138949,2.06086 v 5.1e-4 c 0.163418,0.0772 0.588494,0.14218 0.944645,0.14418 0.779182,0.005 1.401068,-0.29016 1.700672,-0.8077 l 0.196887,-0.34055 h -0.424264 c -0.291659,0 -0.491942,0.067 -0.640788,0.21497 -0.154497,0.15354 -0.359593,0.21838 -0.716235,0.22738 -0.569901,0.005 -1.403686,-0.56073 -1.249536,-1.3069 0.114004,-0.0819 0.399263,-0.0809 0.956014,-0.0739 0.558347,0.007 1.278066,0.009 1.598869,0.004 l 0.58291,-0.009 -0.05943,-0.53434 c -0.06847,-0.61165 -0.437825,-1.34616 -0.804602,-1.60041 -0.320787,-0.22238 -0.701209,-0.33458 -1.085205,-0.34055 z m 0.01033,0.64595 c 0.738276,0.003 1.302352,0.56185 1.267623,1.2976 l -2.615344,0.0253 c -0.01936,-0.54682 0.327629,-1.10268 0.922424,-1.26504 0.145978,-0.0399 0.28858,-0.0585 0.425297,-0.0579 z" /><path
               style="fill:#ffffff;stroke:#000000;stroke-width:0.101208"
               d="m 80.394772,126.25973 v -2.22316 h 0.396233 c 0.374224,0 0.396238,0.0173 0.396238,0.31021 0,0.35549 0.09829,0.39741 0.267732,0.11419 0.0645,-0.10781 0.318519,-0.27624 0.564495,-0.3743 0.874913,-0.34879 1.821557,0.0514 2.03703,0.86132 0.05577,0.20962 0.101651,1.09073 0.101956,1.95801 l 3.77e-4,1.57691 h -0.396238 -0.396238 v -1.123 c 0,-1.51393 -0.07816,-2.02878 -0.355449,-2.34109 -0.334964,-0.37728 -0.920724,-0.35863 -1.351753,0.043 l -0.323505,0.30148 -0.03187,1.55978 -0.03188,1.55979 h -0.438633 -0.438629 z"
               id="path10724" /><path
               style="fill:#ffffff;stroke:#000000;stroke-width:0.101224"
               d="m 78.33639,126.26025 v -2.22266 h 0.446 0.44601 v 2.22266 2.22265 h -0.44601 -0.446 z"
               id="path10726" /><path
               style="fill:#ffffff;stroke:#000000;stroke-width:0.101871"
               d="m 70.940424,127.8277 c -0.09397,-0.36019 -0.456395,-1.72656 -0.805387,-3.03639 -0.34899,-1.30983 -0.634528,-2.42967 -0.634528,-2.48854 0,-0.0589 0.212471,-0.10703 0.472158,-0.10703 h 0.472155 l 0.583753,2.38376 c 0.321062,1.31107 0.610619,2.41742 0.643456,2.45857 0.03285,0.0412 0.253295,-0.64255 0.489925,-1.51932 0.236621,-0.87677 0.547976,-1.97134 0.6919,-2.43238 l 0.261678,-0.83825 h 0.441142 0.441136 l 0.689724,2.43601 c 0.379346,1.33981 0.700976,2.4241 0.714742,2.40954 0.02552,-0.0271 1.229234,-4.78334 1.229234,-4.85726 0,-0.0224 0.22585,-0.0407 0.501884,-0.0407 0.430345,0 0.495002,0.0261 0.453621,0.18337 -0.02655,0.10084 -0.415623,1.51538 -0.864616,3.14342 l -0.816354,2.96005 h -0.505665 -0.505664 l -0.629174,-2.33133 c -0.346043,-1.28226 -0.663055,-2.398 -0.704473,-2.47941 -0.08864,-0.17426 -0.03017,-0.35437 -0.643095,1.9817 -0.249482,0.95089 -0.520035,1.97643 -0.601238,2.27898 l -0.147632,0.5501 h -0.528915 -0.52891 z"
               id="path10728" /></g></g></g></g></g></svg>
